<svg xmlns="http://www.w3.org/2000/svg" width="525" height="427.5" viewBox="0 0 525 427.5"><path fill="none" stroke="#000" d="M100 325h400M100 291.667h400M100 258.333h400M100 225h400M100 191.667h400M100 158.333h400M100 125h400M100 91.667h400M100 58.333h400M100 25h400" opacity=".3"/><path fill="none" stroke="#000" d="M160.465 331v-6" stroke-width="2"/><path fill="#ffbb71" d="M127.907 325V58.333h65.116V325"/><path fill="#ffbb71" stroke="#000" d="M253.488 331v-6" stroke-width="2"/><path fill="#c6b9fc" d="M220.93 325V158.333h65.117V325"/><path fill="#c6b9fc" stroke="#000" d="M346.512 331v-6" stroke-width="2"/><path fill="#8af281" d="M313.953 325V225h65.117v100"/><path fill="#8af281" stroke="#000" d="M439.535 331v-6" stroke-width="2"/><path fill="#ff8482" d="M406.977 325v-33.333h65.116V325"/><path fill="#ff8482" stroke="#000" d="M100 325h400M100 325V25" stroke-width="2"/></svg>
